<svg xmlns="http://www.w3.org/2000/svg" viewBox="0 0 512 512">
  <rect width="512" height="512" rx="96" fill="#fa6c46"/>
  <g fill="#ffffff" transform="translate(100, 40) scale(1.15)">
    <path d="M292.5,371.63c-16.51,11.28-38.27,15.39-57.51,12.73-10.04-1.39-20.02-2.94-29.13-7.31-21.79-10.44-32.68-32.24-37.82-55.05l-.92-10.13-.2-77.87-53.78-.03.69-37.65c5.33-.23,11.34.18,17.13.24l29.16.31c1.93.02,4.45-.64,6.75-1.23l-.28-54.37c-.01-2.8-.2-5.72.3-8.33l40.03-.27-.39,27.38.05,111.44.87,34.43c.19,7.47,2.31,15,4.88,21.65,4.28,11.1,13.46,17.33,24.89,19.31,18.61,3.23,37.26-3.71,42.31-23.53,2.54-9.96,2.32-20.23,2.86-31.25l34.48-.14-.32,8.15c-1.15,29.03,4.15,52.27-24.04,71.52Z"/>
    <path d="M299.61,138.49c-12.6-7.3-29.01-7.5-41.91-1.95-12.01,5.17-19.79,15.71-20.73,28.38-.91,12.39,3.18,24.28,13.13,32.28,11.1,8.94,26.78,11.04,41.14,6.32,13.04-4.28,22.94-16.16,24.54-29.46,1.66-13.82-4.17-28.62-16.18-35.58ZM297.49,173.8c-1.05,7.58-6.68,15.03-13.86,17.89-11.3,4.5-22.25-1.11-26.29-11.85-2.6-6.91-2.9-15.82.03-22.59,3.18-7.36,10.58-11.49,17.4-11.93,7.58-.49,15.99,1.9,19.69,9.14,2.79,5.46,3.9,13.08,3.03,19.35Z"/>
  </g>
</svg>
