<?xml version="1.0" encoding="UTF-8"?>
<svg id="Layer_1" xmlns="http://www.w3.org/2000/svg" version="1.1" viewBox="0 0 512 512">
  <!-- Generator: Adobe Illustrator 29.8.5, SVG Export Plug-In . SVG Version: 2.1.1 Build 2)  -->
  <defs>
    <style>
      .st0 {
        fill: #fa6c46;
      }

      .st1 {
        fill: #fff;
      }
    </style>
  </defs>
  <rect class="st0" width="512" height="512" rx="96" ry="96"/>
  <g>
    <path class="st1" d="M368.82,456.58c-28.24,19.3-65.47,26.33-98.38,21.78-17.17-2.38-34.25-5.03-49.83-12.5-37.28-17.86-55.9-55.15-64.7-94.17l-1.57-17.33-.34-133.21-92-.05,1.18-64.41c9.12-.39,19.4.31,29.3.41l49.88.53c3.3.03,7.61-1.09,11.55-2.1l-.48-93.01c-.02-4.79-.34-9.78.51-14.25l68.48-.46-.67,46.84.09,190.64,1.49,58.9c.33,12.78,3.95,25.66,8.35,37.04,7.32,18.99,23.03,29.65,42.58,33.03,31.84,5.53,63.74-6.35,72.38-40.25,4.35-17.04,3.97-34.61,4.89-53.46l58.98-.24-.55,13.94c-1.97,49.66,7.1,89.42-41.12,122.35h-.02Z"/>
    <path class="st1" d="M380.99,57.75c-21.55-12.49-49.63-12.83-71.69-3.34-20.54,8.84-33.85,26.87-35.46,48.55-1.56,21.2,5.44,41.53,22.46,55.22,18.99,15.29,45.81,18.89,70.38,10.81,22.31-7.32,39.24-27.64,41.98-50.4,2.84-23.64-7.13-48.96-27.68-60.87l.02.02ZM377.36,118.16c-1.8,12.97-11.43,25.71-23.71,30.6-19.33,7.7-38.06-1.9-44.97-20.27-4.45-11.82-4.96-27.06.05-38.64,5.44-12.59,18.1-19.66,29.77-20.41,12.97-.84,27.35,3.25,33.68,15.64,4.77,9.34,6.67,22.38,5.18,33.1v-.02Z"/>
  </g>
</svg>